# xmcd CD database file
#
# Track frame offsets:
#	150
#	14170
#	45667
#	64510
#	93457
#	113757
#	134555
#	161959
#
# Disc length: 2495 seconds
#
# Revision: 1
# Processed by: cddbd v1.5.2PL0 Copyright (c) Steve Scherf et al.
# Submitted via: CDex 1.51
#
DISCID=6f09bd08
DTITLE=Irina Mikhailova - Gothica: A Medieval Past Rediscovered
DYEAR=1995
DGENRE=New Age
TTITLE0=Gothica
TTITLE1=Woods Of Yara
TTITLE2=Vesna
TTITLE3=Russian Lullaby
TTITLE4=Cloud Dance
TTITLE5=Leaf on a Wind
TTITLE6=Svete Tikhiy
TTITLE7=Kamchelaya
EXTD=YEAR: 1995
EXTT0=
EXTT1=
EXTT2=
EXTT3=
EXTT4=
EXTT5=
EXTT6=
EXTT7=
PLAYORDER=
